<svg xmlns="http://www.w3.org/2000/svg" viewBox="0 0 24 24" width="24" height="24">
	<style>
		tspan { white-space:pre }
		.shp0 { fill: none } 
		.shp1 { fill: #ffffff } 
	</style>
	<g id="Page-1">
		<g id="Solid-icons">
			<g id="instagram-24px">
				<path id="Rectangle" class="shp0" d="M0 0L24 0L24 24L0 24L0 0Z"/>
				<path id="Combined-Shape" fill-rule="evenodd" class="shp1" d="M12 2C17.52 2 22 6.48 22 12C22 16.04 19.56 19.69 15.83 21.24C12.09 22.79 7.79 21.93 4.93 19.07C2.07 16.21 1.21 11.91 2.76 8.17C4.31 4.44 7.96 2 12 2ZM9.26 5.75C7.33 5.75 5.76 7.32 5.76 9.25L5.76 14.75C5.76 16.68 7.33 18.25 9.26 18.25L14.76 18.25C16.69 18.25 18.26 16.68 18.26 14.75L18.26 9.25C18.26 7.32 16.69 5.75 14.76 5.75L9.26 5.75ZM14.75 7.5C15.72 7.5 16.5 8.28 16.51 9.25L16.51 14.75C16.51 15.72 15.73 16.5 14.76 16.5L9.26 16.5C8.29 16.5 7.51 15.72 7.51 14.75L7.51 9.25C7.52 8.29 8.3 7.51 9.26 7.5L14.75 7.5ZM12 8.34C9.98 8.34 8.34 9.98 8.34 12C8.34 14.02 9.98 15.66 12 15.66C14.02 15.66 15.66 14.02 15.66 12C15.66 9.98 14.02 8.34 12 8.34ZM12 10.09C13.05 10.1 13.9 10.95 13.91 12C13.91 13.05 13.06 13.91 12 13.91C10.95 13.91 10.09 13.05 10.09 12C10.09 10.95 10.95 10.09 12 10.09Z"/>
			</g>
		</g>
	</g>
</svg>