<svg xmlns="http://www.w3.org/2000/svg" viewBox="0 0 24 24" width="24" height="24">
	<style>
		tspan { white-space:pre }
		.shp0 { fill: none } 
		.shp1 { fill: #ffffff } 
	</style>
	<g id="Page-1">
		<g id="Solid-icons">
			<g id="linkedin-24px">
				<path id="Rectangle" class="shp0" d="M0 0L24 0L24 24L0 24L0 0Z"/>
				<path id="Shape" fill-rule="evenodd" class="shp1" d="M12.08 22C6.56 22 2.08 17.52 2.08 12C2.08 6.48 6.56 2 12.08 2C17.6 2 22.08 6.48 22.08 12C22.09 14.66 21.03 17.2 19.16 19.08C17.28 20.96 14.74 22.02 12.08 22.02L12.08 22ZM9.5 7.77C9.47 7.13 8.94 6.63 8.3 6.64C7.65 6.66 7.14 7.18 7.14 7.82C7.14 8.15 7.27 8.46 7.51 8.68C7.75 8.91 8.07 9.02 8.4 9C9.04 8.96 9.53 8.41 9.5 7.77ZM17.73 16.7L17.69 16.7L17.69 16.73L17.73 16.7ZM17.69 12.83C17.69 10.74 16.58 9.77 15.09 9.77C14.27 9.75 13.5 10.18 13.09 10.89L13.09 9.89L10.83 9.89C10.83 10.52 10.83 16.69 10.83 16.69L13.09 16.69L13.09 12.89C13.08 12.7 13.1 12.52 13.16 12.34C13.34 11.85 13.8 11.52 14.32 11.51C15.14 11.51 15.47 12.14 15.47 13.05L15.47 16.7L17.69 16.7L17.69 12.83ZM9.53 16.71L9.53 9.91L7.27 9.91L7.27 16.71L9.53 16.71Z"/>
			</g>
		</g>
	</g>
</svg>