<svg xmlns="http://www.w3.org/2000/svg" viewBox="0 0 24 24" width="24" height="24">
	<style>
		tspan { white-space:pre }
		.shp0 { fill: none } 
		.shp1 { fill: #ffffff } 
	</style>
	<g id="Page-1">
		<g id="Solid-icons">
			<g id="twitter-24px">
				<path id="Rectangle-Copy-49" class="shp0" d="M0 0L24 0L24 24L0 24L0 0Z"/>
				<path id="Shape" fill-rule="evenodd" class="shp1" d="M22 12C22 17.52 17.52 22 12 22C6.48 22 2 17.52 2 12C2 6.48 6.48 2 12 2C17.52 2 22 6.48 22 12ZM10.17 17.28C11.99 17.29 13.74 16.57 15.03 15.28C16.32 13.99 17.04 12.24 17.03 10.42C17.03 10.31 17.03 10.21 17.03 10.11C17.5 9.77 17.91 9.34 18.24 8.86C17.8 9.05 17.33 9.18 16.85 9.24C17.36 8.94 17.73 8.46 17.91 7.9C17.44 8.18 16.92 8.38 16.38 8.49C15.7 7.77 14.65 7.53 13.73 7.9C12.81 8.26 12.21 9.15 12.21 10.14C12.21 10.33 12.23 10.51 12.28 10.69C10.33 10.6 8.51 9.69 7.28 8.17C7.06 8.54 6.95 8.95 6.95 9.38C6.95 10.19 7.36 10.94 8.03 11.38C7.65 11.37 7.27 11.27 6.94 11.08C6.94 12.23 7.75 13.22 8.87 13.45C8.66 13.5 8.45 13.53 8.24 13.53C8.09 13.55 7.93 13.55 7.78 13.53C8.1 14.51 9 15.18 10.03 15.2C9.17 15.86 8.11 16.22 7.03 16.2C6.84 16.21 6.64 16.21 6.45 16.2C7.55 16.91 8.83 17.29 10.14 17.29L10.17 17.28Z"/>
			</g>
		</g>
	</g>
</svg>