<svg xmlns="http://www.w3.org/2000/svg" viewBox="0 0 24 24" width="24" height="24">
	<style>
		tspan { white-space:pre }
		.shp0 { fill: none } 
		.shp1 { fill: #ffffff } 
	</style>
	<g id="Page-1">
		<g id="Solid-icons">
			<g id="youtube-24px">
				<path id="Layer" class="shp0" d="M0 0L24 0L24 24L0 24L0 0Z"/>
				<path id="Combined-Shape" fill-rule="evenodd" class="shp1" d="M12 2C17.52 2 22 6.48 22 12C22 17.52 17.52 22 12 22C6.48 22 2 17.52 2 12C2 6.48 6.48 2 12 2ZM12.2 7.61L11.8 7.61C9.87 7.62 7.53 7.7 7.53 7.7C6.66 7.75 5.97 8.44 5.92 9.31C5.8 10.19 5.73 11.07 5.71 11.96C5.72 12.85 5.79 13.73 5.92 14.61C5.94 15.49 6.65 16.2 7.53 16.22C7.53 16.22 9.17 16.4 11.96 16.4C14.54 16.4 16.39 16.22 16.39 16.22C17.16 16.21 17.82 15.68 18 14.93C18.19 13.96 18.28 12.98 18.27 12C18.28 11.06 18.19 10.13 18 9.21C17.91 8.38 17.23 7.73 16.39 7.7C16.39 7.7 13.96 7.61 12 7.61L12.2 7.61ZM10.5 9.91L14.24 11.89L10.5 13.81L10.5 9.91Z"/>
			</g>
		</g>
	</g>
</svg>